<?xml version="1.0" encoding="UTF-8"?>
<!-- Generator: Adobe Illustrator 24.0.0, SVG Export Plug-In . SVG Version: 6.00 Build 0)  -->
<svg version="1.1" id="Слой_1" xmlns="http://www.w3.org/2000/svg" xmlns:xlink="http://www.w3.org/1999/xlink" x="0px" y="0px" viewBox="0 0 59.5 60.5" style="enable-background:new 0 0 59.5 60.5;" xml:space="preserve">
<style type="text/css">
	.st0{fill:#FFFFFF;}
	.st1{fill:#2D156D;}
	.st2{fill:url(#SVGID_1_);}
	.st3{fill:#E7E7E7;stroke:#000000;stroke-width:0.1;stroke-miterlimit:10;}
	.st4{fill:#D1D1D3;stroke:#000000;stroke-width:0.1;stroke-miterlimit:10;}
	.st5{fill:url(#SVGID_2_);}
	.st6{fill:url(#SVGID_3_);}
	.st7{fill:url(#SVGID_4_);}
	.st8{fill:url(#SVGID_5_);}
	.st9{fill:url(#SVGID_6_);}
	.st10{fill:url(#SVGID_7_);}
	.st11{fill:url(#SVGID_8_);}
	.st12{fill:url(#SVGID_9_);}
	.st13{fill:url(#SVGID_10_);}
	.st14{fill:url(#SVGID_11_);}
	.st15{fill:url(#SVGID_12_);}
	.st16{fill:#8C8C8C;}
	.st17{fill:url(#SVGID_13_);}
	.st18{fill:url(#SVGID_14_);}
	.st19{fill:url(#SVGID_15_);}
	.st20{fill:url(#SVGID_16_);}
	.st21{fill:url(#SVGID_17_);}
	.st22{fill:#6E6E6E;}
	.st23{fill:url(#SVGID_18_);}
	.st24{fill:url(#SVGID_19_);}
	.st25{fill:url(#SVGID_20_);}
	.st26{fill:url(#SVGID_21_);}
	.st27{fill:url(#SVGID_22_);}
	.st28{fill:url(#SVGID_23_);}
	.st29{fill:url(#SVGID_24_);}
	.st30{fill:url(#SVGID_25_);}
	.st31{fill:#FF0000;}
	.st32{fill:#038919;}
	.st33{fill:#0F61D8;}
	.st34{fill:#E7E7E7;stroke:#000000;stroke-width:0.5;stroke-miterlimit:10;}
	.st35{fill:#300D70;}
</style>
<g>
	<circle class="st0" cx="29.6" cy="30.3" r="28"/>
	<path class="st1" d="M29.6,58.5c-15.5,0-28.2-12.6-28.2-28.2S14.1,2.2,29.6,2.2s28.2,12.6,28.2,28.1S45.2,58.5,29.6,58.5z    M29.6,2.6C14.3,2.6,1.9,15,1.9,30.3S14.3,58,29.6,58s27.8-12.3,27.8-27.7S45,2.6,29.6,2.6z"/>
</g>
<radialGradient id="SVGID_1_" cx="29.7" cy="728.6984" r="21.4037" gradientTransform="matrix(1 0 0 1 0 -698.6522)" gradientUnits="userSpaceOnUse">
	<stop offset="0" style="stop-color:#93BFE2"/>
	<stop offset="1" style="stop-color:#3470AE"/>
</radialGradient>
<circle class="st2" cx="29.7" cy="30" r="21.4"/>
<rect x="12.4" y="21.5" class="st3" width="34.5" height="9.2"/>
<rect x="12.4" y="21.5" class="st3" width="34.5" height="0.4"/>
<rect x="12.4" y="29.5" class="st3" width="34.5" height="0.5"/>
<polygon class="st3" points="29.7,18.9 21.6,21.4 21.6,22 21.9,22 21.9,22.4 22.4,22.4 22.4,22.9 22.6,22.9 22.6,23.4 24.1,23.4   24.1,22.9 24.3,22.9 24.3,22.4 25.6,22.4 25.6,22.9 25.7,22.9 25.7,23.4 27.3,23.4 27.3,22.9 27.4,22.9 27.4,22.4 28.7,22.4   28.7,22.9 28.9,22.9 28.9,23.4 30.4,23.4 30.4,22.9 30.6,22.9 30.6,22.4 31.9,22.4 31.9,22.9 32,22.9 32,23.4 33.6,23.4 33.6,22.9   33.8,22.9 33.8,22.4 35,22.4 35,22.9 35.2,22.9 35.2,23.4 36.8,23.4 36.8,22.9 36.9,22.9 36.9,22.4 37.4,22.4 37.4,22 37.8,22   37.8,21.4 "/>
<polygon class="st3" points="22.4,29.5 22.4,29 22.6,29 22.6,28.5 24.1,28.5 24.1,29 24.3,29 24.3,29.5 "/>
<polygon class="st3" points="25.6,29.5 25.6,29 25.7,29 25.7,28.5 27.3,28.5 27.3,29 27.4,29 27.4,29.5 "/>
<polygon class="st3" points="28.7,29.5 28.7,29 28.9,29 28.9,28.5 30.4,28.5 30.4,29 30.6,29 30.6,29.5 "/>
<polygon class="st3" points="31.9,29.5 31.9,29 32,29 32,28.5 33.6,28.5 33.6,29 33.8,29 33.8,29.5 "/>
<polygon class="st3" points="35.1,29.5 35.1,29 35.2,29 35.2,28.5 36.8,28.5 36.8,29 36.9,29 36.9,29.5 "/>
<rect x="38" y="27.4" class="st3" width="0.8" height="1.4"/>
<rect x="39.8" y="27.4" class="st3" width="0.8" height="1.4"/>
<rect x="41.6" y="27.4" class="st3" width="0.8" height="1.4"/>
<rect x="43.3" y="27.4" class="st3" width="0.8" height="1.4"/>
<rect x="45.1" y="27.4" class="st3" width="0.8" height="1.4"/>
<rect x="38" y="25.3" class="st3" width="0.8" height="1.4"/>
<rect x="39.8" y="25.3" class="st3" width="0.8" height="1.4"/>
<rect x="41.6" y="25.3" class="st3" width="0.8" height="1.4"/>
<rect x="43.3" y="25.3" class="st3" width="0.8" height="1.4"/>
<rect x="45.1" y="25.3" class="st3" width="0.8" height="1.4"/>
<rect x="13.6" y="27.4" class="st3" width="0.8" height="1.4"/>
<rect x="15.4" y="27.4" class="st3" width="0.8" height="1.4"/>
<rect x="17.2" y="27.4" class="st3" width="0.8" height="1.4"/>
<rect x="19" y="27.4" class="st3" width="0.8" height="1.4"/>
<rect x="20.7" y="27.4" class="st3" width="0.8" height="1.4"/>
<rect x="13.6" y="25.3" class="st3" width="0.8" height="1.4"/>
<rect x="15.4" y="25.3" class="st3" width="0.8" height="1.4"/>
<rect x="17.2" y="25.3" class="st3" width="0.8" height="1.4"/>
<rect x="19" y="25.3" class="st3" width="0.8" height="1.4"/>
<rect x="20.7" y="25.3" class="st3" width="0.8" height="1.4"/>
<rect x="22.7" y="23.4" class="st3" width="1.2" height="5.1"/>
<rect x="25.9" y="23.4" class="st3" width="1.2" height="5.1"/>
<rect x="29" y="23.4" class="st3" width="1.2" height="5.1"/>
<rect x="32.2" y="23.4" class="st3" width="1.2" height="5.1"/>
<rect x="35.4" y="23.4" class="st3" width="1.2" height="5.1"/>
<rect x="24.5" y="27.4" class="st3" width="0.8" height="2.1"/>
<rect x="27.7" y="27.4" class="st3" width="0.8" height="2.1"/>
<rect x="30.8" y="27.4" class="st3" width="0.8" height="2.1"/>
<rect x="34" y="27.4" class="st3" width="0.8" height="2.1"/>
<rect x="24.5" y="25.3" class="st3" width="0.8" height="1.4"/>
<rect x="27.7" y="25.4" class="st3" width="0.8" height="1.4"/>
<rect x="30.8" y="25.3" class="st3" width="0.8" height="1.4"/>
<rect x="34" y="25.4" class="st3" width="0.8" height="1.4"/>
<path class="st3" d="M45.9,24.7h-0.8v-1.4h0.1c0.2-0.1,0.5-0.1,0.7,0H46L45.9,24.7L45.9,24.7z"/>
<path class="st3" d="M44.2,24.7h-0.8v-1.4h0.1c0.2-0.1,0.5-0.1,0.7,0h0.1L44.2,24.7L44.2,24.7z"/>
<path class="st3" d="M42.4,24.7h-0.8v-1.4h0.1c0.2-0.1,0.5-0.1,0.7,0h0.1L42.4,24.7L42.4,24.7z"/>
<path class="st3" d="M40.6,24.7h-0.8v-1.4h0.1c0.2-0.1,0.5-0.1,0.7,0h0.1L40.6,24.7L40.6,24.7z"/>
<path class="st3" d="M38.9,24.7H38v-1.4h0.1c0.2-0.1,0.5-0.1,0.7,0h0.1C38.9,23.3,38.9,24.7,38.9,24.7z"/>
<path class="st3" d="M34.8,24.7H34v-1.4h0.1c0.2-0.1,0.5-0.1,0.7,0h0.1L34.8,24.7L34.8,24.7z"/>
<path class="st3" d="M31.6,24.7h-0.8v-1.4h0.1c0.2-0.1,0.5-0.1,0.7,0h0.1v1.4H31.6z"/>
<path class="st3" d="M28.5,24.7h-0.8v-1.4h0.1c0.2-0.1,0.5-0.1,0.7,0h0.1v1.4H28.5z"/>
<path class="st3" d="M25.3,24.7h-0.8v-1.4h0.1c0.2-0.1,0.5-0.1,0.7,0h0.1v1.4H25.3z"/>
<path class="st3" d="M21.6,24.7h-0.8v-1.4h0.1c0.2-0.1,0.5-0.1,0.7,0h0.1v1.4H21.6z"/>
<path class="st3" d="M19.8,24.7H19v-1.4h0.1c0.2-0.1,0.5-0.1,0.7,0h0.1v1.4H19.8z"/>
<path class="st3" d="M18,24.7h-0.8v-1.4h0.1c0.2-0.1,0.5-0.1,0.7,0h0.1v1.4H18z"/>
<path class="st3" d="M16.2,24.7h-0.8v-1.4h0.1c0.2-0.1,0.5-0.1,0.7,0h0.1v1.4H16.2z"/>
<path class="st3" d="M14.5,24.7h-0.8v-1.4h0.1c0.2-0.1,0.5-0.1,0.7,0h0.1v1.4H14.5z"/>
<g>
	<rect x="23.3" y="23.8" width="0.1" height="4.2"/>
</g>
<g>
	<rect x="26.5" y="23.8" width="0.1" height="4.2"/>
</g>
<g>
	<rect x="29.6" y="23.8" width="0.1" height="4.2"/>
</g>
<g>
	<rect x="32.8" y="23.8" width="0.1" height="4.2"/>
</g>
<g>
	<rect x="35.9" y="23.8" width="0.1" height="4.2"/>
</g>
<rect x="22.6" y="23.1" class="st3" width="1.6" height="0.5"/>
<rect x="25.7" y="23.1" class="st3" width="1.6" height="0.5"/>
<rect x="28.9" y="23.1" class="st3" width="1.6" height="0.5"/>
<rect x="32" y="23.1" class="st3" width="1.6" height="0.5"/>
<rect x="35.2" y="23.1" class="st3" width="1.5" height="0.5"/>
<rect x="21.7" y="22" width="16.1" height="0.1"/>
<path class="st3" d="M29.6,22h-4.5c0,0,0-0.3,0.4-0.4s1,0.2,1.3,0s0.1-0.6,0.7-0.5s1,0.1,1.1-0.2s1-0.2,1-0.2V22z"/>
<path class="st3" d="M29.6,22h4.5c0,0,0-0.3-0.4-0.4s-1,0.2-1.3,0s-0.1-0.6-0.7-0.5c-0.6,0.1-1,0.1-1.1-0.2s-1-0.2-1-0.2  S29.6,22,29.6,22z"/>
<circle class="st4" cx="29.6" cy="20.6" r="1.1"/>
<circle class="st4" cx="29.6" cy="20.6" r="0.7"/>
<g>
	<path class="st0" d="M27.1,33.8c-0.2-0.9-1.3-0.9-1.3-0.9h-3.5H22h-3.5c0,0-1.1,0-1.3,0.9c-0.2,0.8,0.2,1.5,1,1.6s1.3-0.1,1.3-1   c0.1-0.8-1.1-1.1-1.5-0.7c-0.4,0.4-0.1,0.9,0.3,0.9c0.3,0,0.3,0,0.3,0v0.2c0,0-0.9,0.1-0.9-0.5c0-0.5,0.2-0.8,0.5-0.9   c0.4-0.1,1-0.1,1.4,0.3c0.3,0.3,0.3,0.7,0.2,0.9c-0.1,0.2-0.2,0.5-0.2,0.5h2.6h2.6c0,0-0.1-0.3-0.2-0.5s0-0.6,0.2-0.9   c0.3-0.4,1-0.4,1.4-0.3c0.3,0.1,0.5,0.4,0.5,0.9c-0.1,0.6-0.9,0.5-0.9,0.5v-0.2c0,0,0.1,0,0.3,0c0.4,0,0.6-0.5,0.3-0.9   c-0.4-0.4-1.5-0.1-1.5,0.7c0.1,0.9,0.5,1.1,1.3,1C26.9,35.3,27.2,34.7,27.1,33.8z"/>
	<path class="st0" d="M24.9,35.5h-5.5c-0.4,0-0.6,0.3-0.6,0.6s0.3,0.6,0.6,0.6h5.5c0.4,0,0.6-0.3,0.6-0.6S25.3,35.5,24.9,35.5z"/>
	<rect x="18.3" y="32.3" class="st0" width="7.8" height="0.5"/>
	<polygon class="st0" points="19.3,38.3 19.3,38.5 19.3,43.4 20.1,43.4 20.1,38.5 20.6,38.5 20.6,43.4 21.3,43.4 21.3,38.5    21.8,38.5 21.8,43.4 22.5,43.4 22.5,38.5 23,38.5 23,43.4 23.7,43.4 23.7,38.5 24.3,38.5 24.3,43.3 25,43.3 25,38.5 25,38.2    25,36.9 19.3,36.9  "/>
</g>
<g>
	<g>
		
			<linearGradient id="SVGID_2_" gradientUnits="userSpaceOnUse" x1="35.4905" y1="742.1172" x2="25.6184" y2="738.329" gradientTransform="matrix(1 0 0 1 0 -698.6522)">
			<stop offset="2.513000e-03" style="stop-color:#12161C"/>
			<stop offset="1" style="stop-color:#8087A1"/>
		</linearGradient>
		<polygon class="st5" points="41.7,45.2 37.9,41.5 30,42 31.7,44.9 41.9,45.4 41.9,45.3   "/>
		
			<linearGradient id="SVGID_3_" gradientUnits="userSpaceOnUse" x1="23.5702" y1="742.0192" x2="34.544" y2="741.1782" gradientTransform="matrix(1 0 0 1 0 -698.6522)">
			<stop offset="2.513000e-03" style="stop-color:#12161C"/>
			<stop offset="1" style="stop-color:#8087A1"/>
		</linearGradient>
		<polygon class="st6" points="22.7,41.5 18.9,45.2 18.6,45.3 18.6,45.4 28.8,44.9 30.5,42   "/>
		
			<linearGradient id="SVGID_4_" gradientUnits="userSpaceOnUse" x1="30.15" y1="738.3498" x2="30.15" y2="736.6048" gradientTransform="matrix(1 0 0 1 0 -698.6522)">
			<stop offset="2.513000e-03" style="stop-color:#12161C"/>
			<stop offset="1" style="stop-color:#8087A1"/>
		</linearGradient>
		<path class="st7" d="M28.8,44.9c0,0,0.4,0.3,1.4,0.3c0,0,0.9,0,1.4-0.3v-0.1L31,44.4l-2.3,0.4v0.1H28.8z"/>
		
			<linearGradient id="SVGID_5_" gradientUnits="userSpaceOnUse" x1="29.2735" y1="743.4285" x2="30.6435" y2="743.3542" gradientTransform="matrix(1 0 0 1 0 -698.6522)">
			<stop offset="2.513000e-03" style="stop-color:#3B465B"/>
			<stop offset="1" style="stop-color:#8087A1"/>
		</linearGradient>
		<path class="st8" d="M28.8,44.8c0,0,0.4,0.3,1.4,0.3c0,0,0.9,0,1.4-0.3l-0.1-0.2l-0.4-0.3L29,44.6L28.8,44.8z"/>
		
			<linearGradient id="SVGID_6_" gradientUnits="userSpaceOnUse" x1="33.3743" y1="741.6259" x2="41.4267" y2="742.3394" gradientTransform="matrix(1 0 0 1 0 -698.6522)">
			<stop offset="2.513000e-03" style="stop-color:#3B465B"/>
			<stop offset="1" style="stop-color:#8087A1"/>
		</linearGradient>
		<polygon class="st9" points="31.7,44.8 41.9,45.3 37.9,41.4 30,41.9   "/>
		
			<linearGradient id="SVGID_7_" gradientUnits="userSpaceOnUse" x1="30.3" y1="738.6269" x2="30.3" y2="737.107" gradientTransform="matrix(1 0 0 1 0 -698.6522)">
			<stop offset="2.513000e-03" style="stop-color:#12161C"/>
			<stop offset="1" style="stop-color:#8087A1"/>
		</linearGradient>
		<path class="st10" d="M29,44.6c0,0,1.2,0.6,2.6,0L31.3,44C31.3,44,29.1,44.1,29,44.6z"/>
		
			<linearGradient id="SVGID_8_" gradientUnits="userSpaceOnUse" x1="20.0308" y1="742.3654" x2="25.5896" y2="741.7694" gradientTransform="matrix(1 0 0 1 0 -698.6522)">
			<stop offset="2.513000e-03" style="stop-color:#3B465B"/>
			<stop offset="1" style="stop-color:#8087A1"/>
		</linearGradient>
		<polygon class="st11" points="28.8,44.8 18.6,45.3 22.7,41.4 30.5,41.9   "/>
		
			<linearGradient id="SVGID_9_" gradientUnits="userSpaceOnUse" x1="24.45" y1="733.3372" x2="24.45" y2="730.1177" gradientTransform="matrix(1 0 0 1 0 -698.6522)">
			<stop offset="2.513000e-03" style="stop-color:#12161C"/>
			<stop offset="1" style="stop-color:#8087A1"/>
		</linearGradient>
		<path class="st12" d="M20.2,44.2L19.9,45c0,0,4-0.7,9.1-0.4l-1.1-1.3L20.2,44.2z"/>
		
			<linearGradient id="SVGID_10_" gradientUnits="userSpaceOnUse" x1="-2320.0811" y1="733.3372" x2="-2320.0811" y2="730.1177" gradientTransform="matrix(-1 0 0 1 -2284.031 -698.6522)">
			<stop offset="2.513000e-03" style="stop-color:#12161C"/>
			<stop offset="1" style="stop-color:#8087A1"/>
		</linearGradient>
		<path class="st13" d="M40.3,44.2l0.3,0.8c0,0-4-0.7-9.1-0.4l1.1-1.3L40.3,44.2z"/>
		
			<linearGradient id="SVGID_11_" gradientUnits="userSpaceOnUse" x1="30.052" y1="741.3832" x2="20.4937" y2="740.5172" gradientTransform="matrix(1 0 0 1 0 -698.6522)">
			<stop offset="0" style="stop-color:#C4C4C4"/>
			<stop offset="0.1675" style="stop-color:#DADADB"/>
			<stop offset="0.3687" style="stop-color:#EDEDEF"/>
			<stop offset="0.5699" style="stop-color:#F9F9FB"/>
			<stop offset="0.7697" style="stop-color:#FDFDFF"/>
			<stop offset="1" style="stop-color:#EBEBED"/>
		</linearGradient>
		<path class="st14" d="M30.3,41.2c0,0-2.9-1.1-7-0.5l-3.4,3l10.4,0.7v-3l0,0V41.2L30.3,41.2z"/>
		
			<linearGradient id="SVGID_12_" gradientUnits="userSpaceOnUse" x1="19.8874" y1="742.7649" x2="30.2674" y2="742.7649" gradientTransform="matrix(1 0 0 1 0 -698.6522)">
			<stop offset="0" style="stop-color:#C4C4C4"/>
			<stop offset="0.2452" style="stop-color:#D3D3D4"/>
			<stop offset="0.7166" style="stop-color:#ECECEE"/>
			<stop offset="1" style="stop-color:#F5F5F7"/>
		</linearGradient>
		<path class="st15" d="M20,44.8c0,0,4.3-0.7,10.2-0.1v-0.3c0,0-4.3-1.6-10.4-0.7C19.9,43.6,20.2,43.8,20,44.8z"/>
		<path class="st0" d="M19.9,43.6L19.9,43.6c6.1-0.9,10.4,0.8,10.4,0.8l0,0C30.3,44.4,26,42.7,19.9,43.6z"/>
		<path class="st16" d="M30.3,44.4c0,0-3.5-2.1-9.6-1.1l2-1.9l7.1,0.9L30.3,44.4z"/>
		
			<linearGradient id="SVGID_13_" gradientUnits="userSpaceOnUse" x1="33.5281" y1="741.4993" x2="38.6333" y2="740.3825" gradientTransform="matrix(1 0 0 1 0 -698.6522)">
			<stop offset="0" style="stop-color:#C4C4C4"/>
			<stop offset="0.1675" style="stop-color:#DADADB"/>
			<stop offset="0.3687" style="stop-color:#EDEDEF"/>
			<stop offset="0.5699" style="stop-color:#F9F9FB"/>
			<stop offset="0.7697" style="stop-color:#FDFDFF"/>
			<stop offset="1" style="stop-color:#EBEBED"/>
		</linearGradient>
		<path class="st17" d="M30.3,41.2c0,0,2.9-1.1,7-0.5l3.4,3l-10.4,0.7v-3l0,0L30.3,41.2L30.3,41.2z"/>
		<path class="st16" d="M30.3,44.4c0,0,2.9-1.9,10-1.1l-3-2.6C37.2,40.6,31.7,42.3,30.3,44.4z"/>
		
			<linearGradient id="SVGID_14_" gradientUnits="userSpaceOnUse" x1="38.7707" y1="742.7649" x2="30.9764" y2="742.7649" gradientTransform="matrix(1 0 0 1 0 -698.6522)">
			<stop offset="0" style="stop-color:#C4C4C4"/>
			<stop offset="0.2452" style="stop-color:#D3D3D4"/>
			<stop offset="0.7166" style="stop-color:#ECECEE"/>
			<stop offset="1" style="stop-color:#F5F5F7"/>
		</linearGradient>
		<path class="st18" d="M40.5,44.8c0,0-4.3-0.7-10.2-0.1v-0.3c0,0,4.3-1.6,10.4-0.7C40.6,43.6,40.3,43.8,40.5,44.8z"/>
		
			<linearGradient id="SVGID_15_" gradientUnits="userSpaceOnUse" x1="33.097" y1="740.6898" x2="37.8649" y2="739.9229" gradientTransform="matrix(1 0 0 1 0 -698.6522)">
			<stop offset="0" style="stop-color:#C4C4C4"/>
			<stop offset="0.1675" style="stop-color:#DADADB"/>
			<stop offset="0.3687" style="stop-color:#EDEDEF"/>
			<stop offset="0.5699" style="stop-color:#F9F9FB"/>
			<stop offset="0.7697" style="stop-color:#FDFDFF"/>
			<stop offset="1" style="stop-color:#EBEBED"/>
		</linearGradient>
		<path class="st19" d="M39.8,43l-3.4-3c-4.1-0.6-6.2,1.1-6.2,1.1v0.2l0,0v3C33.5,42,39.8,43,39.8,43z"/>
		<path class="st0" d="M30.3,44.3L30.3,44.3c3.2-2.3,9.5-1.3,9.5-1.3l0,0C39.2,42.9,33.3,42.1,30.3,44.3z"/>
		<path class="st16" d="M31.1,43.7c0,0,3.1-1.8,7.5-1.4L35.8,40C35.8,40,31.3,43.1,31.1,43.7z"/>
		
			<linearGradient id="SVGID_16_" gradientUnits="userSpaceOnUse" x1="29.1512" y1="741.4401" x2="23.8637" y2="740.1699" gradientTransform="matrix(1 0 0 1 0 -698.6522)">
			<stop offset="0" style="stop-color:#C4C4C4"/>
			<stop offset="0.1675" style="stop-color:#DADADB"/>
			<stop offset="0.3687" style="stop-color:#EDEDEF"/>
			<stop offset="0.5699" style="stop-color:#F9F9FB"/>
			<stop offset="0.7697" style="stop-color:#FDFDFF"/>
			<stop offset="1" style="stop-color:#EBEBED"/>
		</linearGradient>
		<path class="st20" d="M20.4,43l3.4-3c4.1-0.6,6.5,1.2,6.5,1.2v0.2l0,0v3C27,42,20.4,43,20.4,43z"/>
		<path class="st0" d="M30.3,44.3c-3.1-2.3-9.3-1.5-9.8-1.4l0,0C20.4,43,27,42,30.3,44.3L30.3,44.3z"/>
		
			<linearGradient id="SVGID_17_" gradientUnits="userSpaceOnUse" x1="30.9435" y1="741.3881" x2="36.8959" y2="738.4859" gradientTransform="matrix(1 0 0 1 0 -698.6522)">
			<stop offset="0" style="stop-color:#E9F8FF"/>
			<stop offset="0.15" style="stop-color:#E5EDF1"/>
			<stop offset="0.3544" style="stop-color:#E2E4E5"/>
			<stop offset="0.5578" style="stop-color:#E1E1E1"/>
			<stop offset="1" style="stop-color:#EBEBED"/>
		</linearGradient>
		<path class="st21" d="M38.1,41.8l-2.5-3c-4.8,0.5-5.4,2.4-5.4,2.3v0.2l0,0v3C33.7,41.6,38.1,41.8,38.1,41.8z"/>
		<path class="st0" d="M38.1,41.8c-0.3,0-4.4-0.1-7.8,2.5l0,0C33.7,41.6,38.1,41.9,38.1,41.8L38.1,41.8z"/>
		<path class="st0" d="M40.6,43.6L40.6,43.6c-6.1-0.9-10.4,0.8-10.4,0.8l0,0C30.3,44.4,34.5,42.7,40.6,43.6z"/>
		<polygon class="st22" points="30.3,44.4 30.3,44.3 30.3,41.1 30.3,41.1 30.2,41.1 30.2,44.3   "/>
		<g>
			
				<linearGradient id="SVGID_18_" gradientUnits="userSpaceOnUse" x1="20.0174" y1="742.7288" x2="30.2674" y2="742.7288" gradientTransform="matrix(1 0 0 1 0 -698.6522)">
				<stop offset="0" style="stop-color:#AEAEB0"/>
				<stop offset="0.4852" style="stop-color:#C4C4C5"/>
				<stop offset="1" style="stop-color:#DFDFE0"/>
			</linearGradient>
			<path class="st23" d="M30.3,44.5c0,0-4.6-1.4-10.3-0.6c0,0,0,0,0,0.1C20,43.9,24.4,43.1,30.3,44.5z"/>
			
				<linearGradient id="SVGID_19_" gradientUnits="userSpaceOnUse" x1="20.0774" y1="742.8348" x2="30.2774" y2="742.8348" gradientTransform="matrix(1 0 0 1 0 -698.6522)">
				<stop offset="0" style="stop-color:#AEAEB0"/>
				<stop offset="0.4852" style="stop-color:#C4C4C5"/>
				<stop offset="1" style="stop-color:#DFDFE0"/>
			</linearGradient>
			<path class="st24" d="M30.3,44.5c0,0-5.4-1.2-10.2-0.3c0,0,0,0,0,0.1C20.1,44.2,24.3,43.4,30.3,44.5z"/>
			
				<linearGradient id="SVGID_20_" gradientUnits="userSpaceOnUse" x1="20.0574" y1="743.08" x2="30.2591" y2="743.08" gradientTransform="matrix(1 0 0 1 0 -698.6522)">
				<stop offset="0" style="stop-color:#AEAEB0"/>
				<stop offset="0.4852" style="stop-color:#C4C4C5"/>
				<stop offset="1" style="stop-color:#DFDFE0"/>
			</linearGradient>
			<path class="st25" d="M30.3,44.6c0,0-4.8-1-10.2,0v0.1C20,44.7,24.4,43.7,30.3,44.6z"/>
			
				<linearGradient id="SVGID_21_" gradientUnits="userSpaceOnUse" x1="20.0774" y1="742.8745" x2="24.6174" y2="742.8745" gradientTransform="matrix(1 0 0 1 0 -698.6522)">
				<stop offset="0" style="stop-color:#AEAEB0"/>
				<stop offset="0.4852" style="stop-color:#C4C4C5"/>
				<stop offset="1" style="stop-color:#DFDFE0"/>
			</linearGradient>
			<path class="st26" d="M20.1,44.4c0,0,2.4-0.5,4.5-0.3C24.6,44,21.9,44,20.1,44.4L20.1,44.4z"/>
		</g>
		<g>
			
				<linearGradient id="SVGID_22_" gradientUnits="userSpaceOnUse" x1="-2372.3286" y1="742.7288" x2="-2362.0786" y2="742.7288" gradientTransform="matrix(-1 0 0 1 -2331.8113 -698.6522)">
				<stop offset="0" style="stop-color:#AEAEB0"/>
				<stop offset="0.4852" style="stop-color:#C4C4C5"/>
				<stop offset="1" style="stop-color:#DFDFE0"/>
			</linearGradient>
			<path class="st27" d="M30.3,44.5c0,0,4.6-1.4,10.3-0.6c0,0,0,0,0,0.1C40.5,43.9,36.2,43.1,30.3,44.5z"/>
			
				<linearGradient id="SVGID_23_" gradientUnits="userSpaceOnUse" x1="-2372.2686" y1="742.8348" x2="-2362.0686" y2="742.8348" gradientTransform="matrix(-1 0 0 1 -2331.8113 -698.6522)">
				<stop offset="0" style="stop-color:#AEAEB0"/>
				<stop offset="0.4852" style="stop-color:#C4C4C5"/>
				<stop offset="1" style="stop-color:#DFDFE0"/>
			</linearGradient>
			<path class="st28" d="M30.3,44.5c0,0,5.4-1.2,10.2-0.3c0,0,0,0,0,0.1C40.5,44.2,36.2,43.4,30.3,44.5z"/>
			
				<linearGradient id="SVGID_24_" gradientUnits="userSpaceOnUse" x1="-2372.2886" y1="743.08" x2="-2362.0886" y2="743.08" gradientTransform="matrix(-1 0 0 1 -2331.8113 -698.6522)">
				<stop offset="0" style="stop-color:#AEAEB0"/>
				<stop offset="0.4852" style="stop-color:#C4C4C5"/>
				<stop offset="1" style="stop-color:#DFDFE0"/>
			</linearGradient>
			<path class="st29" d="M30.3,44.6c0,0,4.8-1,10.2,0v0.1C40.5,44.7,36.1,43.7,30.3,44.6z"/>
			
				<linearGradient id="SVGID_25_" gradientUnits="userSpaceOnUse" x1="-2372.2686" y1="742.8745" x2="-2367.7288" y2="742.8745" gradientTransform="matrix(-1 0 0 1 -2331.8113 -698.6522)">
				<stop offset="0" style="stop-color:#AEAEB0"/>
				<stop offset="0.4852" style="stop-color:#C4C4C5"/>
				<stop offset="1" style="stop-color:#DFDFE0"/>
			</linearGradient>
			<path class="st30" d="M40.5,44.4c0,0-2.4-0.5-4.5-0.3C35.9,44,38.6,44,40.5,44.4L40.5,44.4z"/>
		</g>
		<path class="st16" d="M30,44.6c0,0,0.1,0,0.6,0h-0.3H30z"/>
		<polygon class="st16" points="30.3,44.4 30.2,44.3 30.2,44.6 30.3,44.6 30.3,44.3   "/>
	</g>
</g>
<g>
	<path class="st0" d="M35.8,42.5c-0.6,0-1.4-0.4-2.1-1.2l-0.2-0.2l0.2-0.2c0.5-0.4,0.9-0.9,1.3-1.4l0.1-0.1h0.1   c0.5-0.1,1-0.2,1.4-0.3l0.3-0.1l0.1,0.3c0.4,1.6,0.2,2.7-0.6,3.1C36.2,42.5,36,42.5,35.8,42.5z M34.2,41.1c0.8,0.7,1.5,1,1.9,0.8   c0.5-0.3,0.6-1.1,0.4-2.3c-0.4,0.1-0.7,0.2-1.1,0.2C35,40.4,34.6,40.8,34.2,41.1z"/>
	<path class="st0" d="M31.4,36.6v-0.3c-0.1-1,0.2-1.8,0.8-2.1c0.5-0.3,1.3-0.1,2.1,0.5l0.2,0.2l-0.2,0.2c-0.3,0.3-0.6,0.6-0.9,1   l-0.1,0.1h-0.1c-0.5,0.1-1,0.2-1.4,0.3L31.4,36.6z M32.7,34.6c-0.1,0-0.2,0-0.3,0.1c-0.3,0.2-0.5,0.6-0.5,1.3   c0.3-0.1,0.7-0.2,1.1-0.2c0.2-0.3,0.4-0.5,0.7-0.7C33.3,34.7,32.9,34.6,32.7,34.6z"/>
	<path class="st0" d="M32.4,42c-0.2,0-0.5-0.1-0.6-0.2c-0.6-0.4-0.8-1.3-0.5-2.6l0.1-0.3l0.3,0.1c0.4,0.1,0.8,0.3,1.3,0.3h0.1   l0.1,0.1c0.3,0.6,0.7,1,1.1,1.4l0.2,0.2L34,41.3C33.4,41.8,32.8,42,32.4,42z M31.6,39.6c-0.1,0.9,0,1.6,0.4,1.8   c0.3,0.2,0.9,0.1,1.5-0.4c-0.3-0.4-0.6-0.8-0.9-1.2C32.2,39.8,31.9,39.7,31.6,39.6z"/>
	<path class="st0" d="M37,36.5l-0.3-0.1c-0.5-0.2-1.1-0.3-1.8-0.3h-0.1L34.7,36c-0.3-0.4-0.6-0.6-0.9-0.9l-0.2-0.2l0.2-0.2   c1-0.9,1.9-1.2,2.6-0.8c0.6,0.3,0.8,1.1,0.6,2.3L37,36.5z M35.1,35.6c0.5,0,1,0.1,1.5,0.2c0.1-0.7-0.1-1.2-0.4-1.4   c-0.4-0.2-1,0-1.8,0.5C34.6,35.1,34.8,35.3,35.1,35.6z"/>
	<path class="st0" d="M36.5,39.6l-0.1-0.3c-0.1-0.4-0.3-0.9-0.5-1.3v-0.1v-0.1c0.3-0.6,0.5-1.2,0.5-1.7v-0.3l0.3,0.1   c1.2,0.4,2,1,2,1.8s-0.7,1.5-2,1.9L36.5,39.6z M36.5,37.9c0.1,0.4,0.3,0.7,0.4,1c0.9-0.4,1.5-0.8,1.4-1.3l0,0   c0-0.4-0.5-0.9-1.3-1.2C36.9,36.9,36.7,37.4,36.5,37.9z"/>
	<path class="st0" d="M31.6,39.6l-0.3-0.1c-1.1-0.4-1.7-1-1.7-1.7s0.7-1.4,1.9-1.8l0.3-0.1v0.3c0,0.4,0.1,0.9,0.3,1.5v0.1v0.1   c-0.2,0.5-0.4,1-0.5,1.4L31.6,39.6z M31.4,36.6c-0.8,0.3-1.2,0.8-1.2,1.2s0.4,0.8,1.1,1.1c0.1-0.4,0.2-0.8,0.4-1.1   C31.5,37.4,31.4,37,31.4,36.6z"/>
	<path class="st0" d="M34.1,40c-0.5,0-0.9,0-1.4-0.1h-0.1l-0.1-0.1c-0.1-0.1-0.2-0.3-0.2-0.4c-0.2-0.5-0.5-0.9-0.6-1.4v-0.1v-0.1   c0.1-0.3,0.3-0.6,0.5-0.9c0.2-0.4,0.5-0.7,0.7-1l0.1-0.1h0.1c0.4-0.1,0.8-0.1,1.1-0.1c0.2,0,0.5,0,0.8,0h0.1l0.1,0.1   c0.4,0.5,0.8,1,1.1,1.6c0.1,0.2,0.2,0.4,0.3,0.6v0.1v0.1c-0.1,0.3-0.3,0.7-0.5,1s-0.3,0.5-0.5,0.8l-0.1,0.1h-0.1   c-0.3,0-0.7,0.1-1,0.1C34.2,40,34.2,40,34.1,40z M32.9,39.4c0.5,0.1,0.9,0.1,1.4,0.1c0.3,0,0.5,0,0.8-0.1c0.1-0.2,0.3-0.4,0.4-0.6   c0.1-0.3,0.3-0.5,0.4-0.8c-0.1-0.2-0.1-0.3-0.2-0.4c-0.3-0.5-0.6-1-0.9-1.4c-0.2,0-0.4,0-0.6,0c-0.3,0-0.7,0-1,0.1   c-0.2,0.3-0.4,0.6-0.6,0.9c-0.1,0.3-0.3,0.5-0.4,0.8c0.1,0.4,0.3,0.9,0.5,1.3C32.8,39.2,32.9,39.3,32.9,39.4z"/>
</g>
<circle class="st31" cx="30.2" cy="37.6" r="0.6"/>
<circle class="st32" cx="36.9" cy="35.9" r="0.6"/>
<circle class="st33" cx="31.3" cy="40.6" r="0.6"/>
<circle class="st0" cx="36.7" cy="35.9" r="0.2"/>
<circle class="st0" cx="30" cy="37.6" r="0.2"/>
<circle class="st0" cx="31.2" cy="40.5" r="0.2"/>
<text transform="matrix(1 0 0 1 -242.2826 -108.3261)" style="font-family:'ArialMT'; font-size:12px;"> </text>
<text transform="matrix(1 0 0 1 -242.2826 -108.3261)" style="font-family:'ArialMT'; font-size:12px;"> </text>
<path class="st34" d="M12.2,21.4"/>
<path class="st34" d="M12.2,21.6"/>
<g>
	<path class="st35" d="M8.5,41l0-0.1c-0.1-0.1-0.1-0.2-0.2-0.2c-0.1,0-0.2,0-0.4,0l-2.2,0.7l-0.9-1.9l2.5-1.1l-0.1-0.3l1-0.4   l0.3,0.6l-0.4,0.2l0.8,1.8L9.2,40l0.3,0.6L8.5,41z M6,40.6l1.6-0.5c0.2-0.1,0.4-0.1,0.5,0L7.6,39l-1.9,0.8L6,40.6z"/>
	<path class="st35" d="M6.4,35.3l0.4,1.3l0.6,0.1l0.2,0.7l-0.1,0l-3.5-0.6l-0.1-0.3l2.7-2.2l0.1,0L6.9,35L6.4,35.3z M5,36.4l1.2,0.2   l-0.2-0.9L5,36.4z"/>
	<path class="st35" d="M3.7,32l0.2,1.3L6.5,33l0.1,0.7L3.3,34l-0.2-2L3.7,32z"/>
	<path class="st35" d="M3.1,28.9l0.6,0l0,1.3l0.7,0l0-1.2L5,29l0,1.2l0.8,0l0-1.3l0.6,0l0,2l-3.3,0L3.1,28.9z"/>
	<path class="st35" d="M4.7,28c-0.5-0.1-0.9-0.3-1.2-0.7c-0.3-0.4-0.3-0.8-0.3-1.2c0.1-0.4,0.2-0.7,0.4-0.9c0.2-0.3,0.6-0.4,0.9-0.4   l-0.1,0.7C4.2,25.5,4,25.8,4,26.2c0,0.3,0,0.5,0.2,0.7c0.2,0.2,0.4,0.3,0.7,0.4c0.3,0,0.5,0,0.8-0.2C5.9,27,6,26.8,6,26.5   c0-0.2,0-0.4-0.1-0.6c-0.1-0.2-0.2-0.3-0.4-0.4l0.1-0.7c0.4,0.1,0.7,0.3,0.8,0.7c0.2,0.3,0.2,0.7,0.2,1c0,0.2-0.1,0.4-0.2,0.6   c-0.1,0.2-0.2,0.3-0.4,0.5c-0.2,0.1-0.4,0.2-0.6,0.3C5.3,28,5,28,4.7,28z"/>
	<path class="st35" d="M4.7,23l-0.3,0.8l-0.6-0.2l0.7-2.3l0.6,0.2l-0.3,0.8l2.6,0.8l-0.2,0.6L4.7,23z"/>
	<path class="st35" d="M8.3,19.6l-0.6,1.2l0.4,0.5L7.8,22l-0.1,0l-2.3-2.7l0.1-0.3l3.6,0l0.1,0l-0.3,0.7L8.3,19.6z M6.5,19.5   l0.8,0.9l0.4-0.8L6.5,19.5z"/>
	<path class="st35" d="M11.1,16.3l-0.4,0.6l-1.2-0.8l-0.7,1l1.2,0.8l-0.4,0.6l-2.7-1.8l0.4-0.6l1,0.7l0.7-1l-1-0.7l0.4-0.6   L11.1,16.3z"/>
	<path class="st35" d="M10.4,14.5c-0.4-0.4-0.6-0.8-0.6-1.2c0-0.4,0.2-0.8,0.5-1.2c0.3-0.3,0.5-0.4,0.9-0.5c0.3-0.1,0.7,0,1,0.2   l-0.5,0.5c-0.4-0.1-0.7-0.1-1,0.2c-0.2,0.2-0.3,0.4-0.3,0.7c0,0.3,0.1,0.5,0.4,0.7c0.2,0.2,0.5,0.3,0.7,0.3c0.3,0,0.5-0.1,0.7-0.3   c0.1-0.2,0.2-0.3,0.3-0.5c0-0.2,0-0.4-0.1-0.5l0.5-0.5c0.3,0.3,0.4,0.7,0.3,1c0,0.3-0.2,0.7-0.5,0.9c-0.2,0.2-0.3,0.3-0.5,0.4   c-0.2,0.1-0.4,0.2-0.6,0.2c-0.2,0-0.4,0-0.6-0.1C10.8,14.8,10.5,14.7,10.4,14.5z"/>
	<path class="st35" d="M12.9,9.8l0.8,1.1c0.2-0.2,0.4-0.3,0.4-0.4c0-0.1,0-0.2,0-0.3c0-0.1-0.1-0.3-0.2-0.5c-0.2-0.5,0-0.9,0.5-1.1   l0.3,0.4c-0.1,0.1-0.2,0.1-0.2,0.2c0,0.1,0,0.2,0,0.3c0.2,0.4,0.2,0.7,0.2,0.9l1.7,0.6l0.1,0.1L16,11.5L14.5,11   c-0.1,0.1-0.2,0.2-0.4,0.3l0.8,1l-0.6,0.4l-2-2.6L12.9,9.8z"/>
	<path class="st35" d="M18.2,8.1l-0.7,2.5l-0.2,0.1l-1.6-2.8l0.6-0.3l0.9,1.6l0.7-2.5l0.2-0.1l1.6,2.9l-0.6,0.3L18.2,8.1z"/>
	<path class="st35" d="M20.7,8.9l-1.1-3.1l0.7-0.2l0.6,1.7L22,5L22.2,5L23.3,8l-0.7,0.2L22,6.5l-1.1,2.4L20.7,8.9z M20.3,5.2   c0.2,0.1,0.4,0.1,0.6,0c0.2-0.1,0.4-0.2,0.5-0.4c0.1-0.2,0.1-0.4,0-0.6c-0.2,0-0.3,0.1-0.5,0.1c0,0.2-0.1,0.3-0.3,0.4   c-0.2,0.1-0.3,0-0.4-0.2l-0.4,0.2C20,4.9,20.1,5.1,20.3,5.2z"/>
	<path class="st35" d="M27.4,4.7l-1.3,0.2l0.4,2.6l-0.7,0.1l-0.4-3.2l2-0.3L27.4,4.7z"/>
	<path class="st35" d="M31.7,5.6c0,0.5-0.2,0.9-0.5,1.2c-0.3,0.3-0.7,0.5-1.2,0.5c-0.5,0-0.9-0.2-1.2-0.5c-0.3-0.3-0.5-0.7-0.5-1.2   c0-0.3,0.1-0.7,0.3-0.9c0.2-0.3,0.4-0.4,0.6-0.6c0.3-0.1,0.5-0.2,0.8-0.2c0.2,0,0.4,0,0.6,0.1c0.2,0.1,0.4,0.2,0.5,0.3   c0.2,0.1,0.3,0.3,0.4,0.5C31.7,5.1,31.7,5.3,31.7,5.6z M29.1,5.6c0,0.3,0.1,0.6,0.3,0.8c0.2,0.2,0.4,0.3,0.7,0.3   c0.3,0,0.5-0.1,0.7-0.3C30.9,6.2,31,5.9,31,5.6c0-0.3-0.1-0.6-0.3-0.8c-0.2-0.2-0.4-0.3-0.7-0.3c-0.3,0-0.5,0.1-0.7,0.3   C29.2,5,29.1,5.2,29.1,5.6z"/>
	<path class="st35" d="M32.7,5.7c0.1-0.5,0.3-0.9,0.7-1.1c0.4-0.2,0.8-0.3,1.3-0.2c0.4,0.1,0.7,0.2,0.9,0.5c0.3,0.2,0.4,0.6,0.4,0.9   l-0.7-0.1c-0.1-0.4-0.3-0.6-0.7-0.7c-0.3-0.1-0.5,0-0.8,0.2c-0.2,0.2-0.3,0.4-0.4,0.7c-0.1,0.3,0,0.5,0.1,0.8   c0.1,0.2,0.4,0.4,0.6,0.4c0.2,0,0.4,0,0.6,0c0.2-0.1,0.3-0.2,0.4-0.4l0.7,0.1c-0.1,0.4-0.4,0.6-0.7,0.8c-0.3,0.1-0.7,0.2-1,0.1   c-0.2,0-0.4-0.1-0.6-0.2c-0.2-0.1-0.3-0.2-0.5-0.4c-0.1-0.2-0.2-0.4-0.3-0.6C32.6,6.2,32.6,6,32.7,5.7z"/>
	<path class="st35" d="M37.2,7.5l0.2-0.2L37,5l0-0.1l0.7,0.3L38,6.8l0,0l1.1-1.1l0.7,0.2l0,0.1l-2,1.9c-0.1,0.1-0.3,0.2-0.4,0.3   c-0.1,0.1-0.2,0.1-0.4,0.2c-0.1,0-0.3,0-0.4,0c-0.1-0.1-0.3-0.1-0.5-0.3l0.3-0.5c0.1,0.1,0.3,0.2,0.4,0.2C37,7.7,37.1,7.7,37.2,7.5   z"/>
	<path class="st35" d="M39.4,8.6l0.1,0.1c0.1,0.1,0.2,0.1,0.3,0c0.1,0,0.2-0.1,0.3-0.3l1.3-1.8l1.9,1L42,9.9l0.3,0.2L41.8,11   l-0.6-0.3l0.2-0.4l-1.7-0.9l-0.2,0.4l-0.6-0.3L39.4,8.6z M41.6,7.4l-0.9,1.4C40.6,8.9,40.4,9,40.3,9l1.1,0.6l1-1.8L41.6,7.4z"/>
	<path class="st35" d="M44.6,11.8L43.5,11L43,11.2l-0.6-0.4l0.1-0.1l3.2-1.6l0.3,0.2l-0.7,3.4l-0.1,0.1l-0.6-0.4L44.6,11.8z    M45.1,10l-1,0.6l0.7,0.5L45.1,10z"/>
	<path class="st35" d="M46,13.7l-0.5-0.5l2.4-2.3l1,1c0.3,0.3,0.4,0.5,0.4,0.9c0,0.3-0.2,0.6-0.4,0.8C48.6,13.8,48.4,14,48,14   c-0.3,0-0.6-0.1-0.8-0.4l-0.5-0.5L46,13.7z M47.1,12.7l0.5,0.5c0.1,0.1,0.2,0.2,0.4,0.1c0.1,0,0.3-0.1,0.4-0.2   c0.1-0.1,0.2-0.2,0.2-0.4c0-0.1,0-0.3-0.1-0.4L48,11.9L47.1,12.7z"/>
	<path class="st35" d="M49.1,14.5c0.4-0.3,0.9-0.4,1.3-0.3c0.4,0.1,0.8,0.3,1.1,0.7c0.2,0.3,0.3,0.6,0.3,1c0,0.3-0.1,0.7-0.4,0.9   L51,16.3c0.2-0.3,0.2-0.6-0.1-1c-0.2-0.2-0.4-0.4-0.6-0.4c-0.3,0-0.5,0-0.8,0.2c-0.2,0.2-0.4,0.4-0.4,0.6c-0.1,0.3,0,0.5,0.2,0.7   c0.1,0.2,0.3,0.3,0.4,0.4c0.2,0.1,0.4,0.1,0.5,0l0.4,0.5c-0.4,0.2-0.7,0.2-1.1,0.1c-0.3-0.1-0.6-0.3-0.8-0.6   c-0.1-0.2-0.2-0.4-0.3-0.6c-0.1-0.2-0.1-0.4-0.1-0.6c0-0.2,0.1-0.4,0.2-0.6C48.7,14.9,48.9,14.7,49.1,14.5z"/>
	<path class="st35" d="M52.7,18.1l-0.4-0.8l0.5-0.3l1.1,2.1l-0.5,0.3L53,18.7l-2.4,1.2l-0.3-0.6L52.7,18.1z"/>
	<path class="st35" d="M54.3,22.9c-0.1,0-0.2,0-0.4,0c-0.1,0-0.2-0.1-0.3-0.1c0,0.3-0.2,0.6-0.5,0.7c-0.3,0.1-0.5,0.1-0.8,0   c-0.2-0.1-0.4-0.3-0.5-0.6l-0.5-1.4l3.1-1.1l0.5,1.3c0.1,0.3,0.1,0.5,0,0.8C54.7,22.6,54.6,22.8,54.3,22.9z M53,22.3l-0.2-0.7   l-0.7,0.2l0.3,0.7c0,0.1,0.1,0.2,0.2,0.2c0.1,0,0.2,0.1,0.3,0c0.1,0,0.2-0.1,0.3-0.2C53.1,22.5,53.1,22.4,53,22.3z M54.3,21.7   L54,21.1l-0.7,0.2l0.2,0.6c0,0.1,0.1,0.2,0.2,0.2c0.1,0,0.2,0.1,0.3,0c0.1,0,0.2-0.1,0.2-0.2C54.3,22,54.3,21.9,54.3,21.7z"/>
	<path class="st35" d="M55.9,25.9L55.3,26l-0.3-1.3l-0.7,0.1l0.2,1.2l-0.6,0.1L53.8,25l-0.7,0.1l0.3,1.3l-0.6,0.1l-0.4-2l3.2-0.6   L55.9,25.9z"/>
	<path class="st35" d="M53,30.1l0-0.7l1.4-0.1l-0.1-1.2l-1.4,0.1l0-0.7l3.3-0.2l0,0.7L54.9,28l0.1,1.2l1.3-0.1l0,0.7L53,30.1z"/>
	<path class="st35" d="M52.6,33.7l0.1-0.7l1.4,0.2l0.1-1.2l-1.4-0.2l0.1-0.7l3.3,0.4l-0.1,0.7L54.9,32l-0.1,1.2l1.3,0.1l-0.1,0.7   L52.6,33.7z"/>
	<path class="st35" d="M54.6,39.2l-3.2-0.9l0.2-0.7l3.2,0.9L54.6,39.2z M55.5,36.3L55.5,36.3l-1-0.3l-0.2,0.7   c-0.1,0.4-0.3,0.6-0.6,0.8c-0.3,0.1-0.6,0.1-0.9,0c-0.3-0.1-0.5-0.3-0.6-0.5c-0.1-0.2-0.1-0.5,0-0.8l0.4-1.3l3.2,0.9L55.5,36.3z    M53.7,36.5L53.7,36.5l0.2-0.7l-1-0.3c0,0.1,0,0.2-0.1,0.3c0,0.1-0.1,0.2-0.1,0.3c-0.1,0.4,0,0.6,0.3,0.7c0.1,0.1,0.3,0.1,0.4,0   C53.5,36.7,53.6,36.6,53.7,36.5z"/>
	<path class="st35" d="M51,39.1l3,1.5l-0.3,0.6l-1.7-0.8l0.8,2.5l-0.1,0.2l-3-1.5L50,41l1.7,0.8l-0.8-2.5L51,39.1z M53.9,41.6   c-0.2,0.1-0.3,0.2-0.5,0.4c-0.1,0.2-0.1,0.4-0.1,0.6c0.1,0.2,0.2,0.3,0.4,0.5c0.1-0.2,0.2-0.3,0.3-0.4c-0.2-0.1-0.2-0.3-0.1-0.5   c0.1-0.2,0.2-0.2,0.4-0.2l0.2-0.4C54.3,41.6,54.1,41.6,53.9,41.6z"/>
</g>
<g>
	<path class="st35" d="M9.9,46.6l0.3-0.1l0.9-2.3l0.1-0.1l0.5,0.7L11,46.4l0,0l1.6-0.3l0.5,0.6l-0.1,0l-2.8,0.5   c-0.2,0-0.4,0.1-0.5,0.1c-0.1,0-0.3,0-0.4-0.1C9.2,47.2,9.1,47.1,9,47c-0.1-0.1-0.2-0.3-0.3-0.5l0.5-0.3c0.1,0.2,0.1,0.3,0.2,0.4   C9.6,46.7,9.7,46.7,9.9,46.6z"/>
	<path class="st35" d="M13.9,51.8l-0.6-0.5l0.9-1l-1.1-0.9l-0.9,1l-0.6-0.5l2.2-2.5l0.6,0.5l-0.8,0.9l1.1,0.9l0.8-0.9l0.6,0.5   L13.9,51.8z"/>
	<path class="st35" d="M18.5,52.4l-2.7,0.7L15.6,53l1.6-2.9l0.7,0.4L17,52.1l2.7-0.7l0.2,0.1l-1.6,2.9L17.6,54L18.5,52.4z"/>
	<path class="st35" d="M23.4,53.7c0,0.1-0.1,0.2-0.2,0.3c-0.1,0.1-0.2,0.1-0.3,0.2c0.3,0.2,0.4,0.5,0.3,0.8   c-0.1,0.3-0.3,0.5-0.5,0.6c-0.2,0.1-0.5,0.1-0.9,0l-1.6-0.5l1-3.1l1.5,0.4c0.3,0.1,0.6,0.3,0.7,0.5C23.5,53.1,23.5,53.4,23.4,53.7z    M22.1,54.3L21.3,54l-0.2,0.7l0.8,0.2c0.1,0,0.2,0,0.3,0c0.1,0,0.2-0.1,0.2-0.2c0-0.1,0-0.3-0.1-0.4C22.3,54.4,22.2,54.3,22.1,54.3   z M22.4,53l-0.7-0.2l-0.2,0.7l0.7,0.2c0.1,0,0.2,0,0.3,0c0.1,0,0.2-0.1,0.2-0.2c0-0.1,0-0.2,0-0.3C22.6,53.1,22.5,53,22.4,53z"/>
	<path class="st35" d="M27.3,53.3l-0.1,0.6l-1.4-0.2l-0.1,0.7l1.3,0.2l-0.1,0.6L25.6,55l-0.1,0.7l1.5,0.2l-0.1,0.6l-2.2-0.3L25,53   L27.3,53.3z"/>
	<path class="st35" d="M29.5,56.6l-0.8,0l-0.1-3.3l1.5-0.1c0.4,0,0.7,0.1,1,0.3c0.2,0.2,0.4,0.5,0.4,0.8c0,0.3-0.1,0.6-0.3,0.8   c-0.2,0.2-0.5,0.4-0.9,0.4l-0.8,0L29.5,56.6z M29.4,55.1l0.8,0c0.2,0,0.3-0.1,0.4-0.2c0.1-0.1,0.1-0.3,0.1-0.4   c0-0.2-0.1-0.3-0.2-0.4c-0.1-0.1-0.2-0.2-0.4-0.1l-0.8,0L29.4,55.1z"/>
	<path class="st35" d="M32.7,54.8c-0.1-0.5,0-0.9,0.3-1.3s0.7-0.6,1.2-0.7c0.4-0.1,0.8-0.1,1.1,0.1c0.4,0.1,0.6,0.4,0.8,0.7   l-0.7,0.2c-0.2-0.3-0.6-0.4-1-0.3c-0.3,0.1-0.5,0.2-0.7,0.4c-0.2,0.2-0.2,0.5-0.1,0.8c0.1,0.3,0.2,0.5,0.4,0.7   c0.2,0.2,0.5,0.2,0.8,0.1c0.2,0,0.4-0.1,0.6-0.3c0.1-0.1,0.2-0.3,0.2-0.5l0.7-0.1c0,0.4-0.1,0.7-0.4,1c-0.3,0.3-0.6,0.4-1,0.5   c-0.2,0-0.5,0.1-0.7,0c-0.2,0-0.4-0.1-0.6-0.2c-0.2-0.1-0.4-0.2-0.5-0.4C32.8,55.2,32.7,55,32.7,54.8z"/>
	<path class="st35" d="M39.5,52.6L38.3,55l-0.2,0.1l-1.3-3l0.7-0.3l0.7,1.7l1.2-2.5l0.2-0.1l1.3,3l-0.7,0.3L39.5,52.6z"/>
	<path class="st35" d="M41.8,50.5L41,51l-0.3-0.5l2.3-1.3l0.3,0.5l-0.8,0.5l1.4,2.3l-0.6,0.4L41.8,50.5z"/>
	<path class="st35" d="M45.6,47.2l0.4,0.5l-1.1,0.9l0.4,0.5l1.1-0.8l0.4,0.5l-1.1,0.8l0.5,0.6l1.2-0.9l0.4,0.5L46,51.1l-2.1-2.6   L45.6,47.2z"/>
	<path class="st35" d="M47.5,46.2l-0.7,0.7l-0.4-0.4l1.9-1.9l0.4,0.4L48,45.7l1.9,1.9l-0.5,0.5L47.5,46.2z"/>
</g>
</svg>